Patient4_TMGait_0pt5_01_left_39_EMG.mot
version=1
nRows=23
nColumns=33
inDegrees=no
endheader
time	1LAddLong	2LGlutMax	3LGlutMed	4LIliopsoas	5LSemiMemb	6LBicFemLong	7LRecFem	8LVastMed	9LVastLat	10LGasMed	11LTibAnt	12lTibPost	13LPeroneusLong	14LSol	15LExtDigLong	16LFlexDigLong	17RAddLong	18RGlutMax	19RGlutMed	20RIliopsoas	21RSemiMemb	22RBicFemLong	23RRecFem	24RVastMed	25RVastLat	26RGasMed	27RTibAnt	28RTibPost	29RPeroneusLong	30RSol	31RExtDigLong	32RFlexDigLong
53.348	0.00946	0.061646	-0.006561	0.00061	0.010681	-0.054779	-0.016785	-0.009613	0.093689	-0.017242	0.23392	0.00946	0.008392	0.053406	0.048828	-0.007782	0.010681	0.000458	0.094757	0.009766	-0.014496	0.020599	-0.036316	-0.3154	-0.001221	-0.0354	0.10742	-0.015717	-0.070343	-0.003662	-0.002899	-0.010223
53.349	0.010681	0.066528	-0.016327	0.002747	-0.005341	-0.082397	-0.00824	-0.001068	0.094299	-0.010376	0.16571	0.000763	-0.020294	-0.005035	0.062103	-0.020447	0.010376	0.085754	0.099182	-0.014038	-0.015717	-0.002441	0.007935	-0.29343	-0.016479	-0.028687	-0.34164	-0.020142	0.044556	0.11932	0.008545	-0.009766
53.35	-0.001984	0.063171	-0.024719	0.00351	-0.024109	-0.08667	-0.011444	-0.00412	0.091248	-0.024109	0.10803	0.01236	-0.01236	-0.011902	0.036163	-0.015869	0.025787	0.06897	0.24368	-0.037689	-0.036316	0.012665	0.02182	-0.16235	-0.035706	-0.034027	-0.52277	-0.01236	0.09079	0.29266	-0.000916	-0.012207
53.351	0.005341	0.070801	-0.019531	-0.003662	-0.007782	-0.070648	-0.014648	-0.003662	0.091095	-0.036774	0.07309	0.009308	0.010071	-0.020447	0.014038	-0.014343	0.024719	0.030975	0.23438	-0.010834	-0.069275	-0.009308	0.032043	-0.003967	-0.062103	-0.022278	-0.6311	-0.003967	0.18021	0.30197	-0.002594	0.004272
53.352	0.004272	0.078888	-0.019379	0.006561	0.001221	-0.0914	-0.016785	-0.007477	0.094604	-0.050507	0.030518	0.007935	0.044098	-0.043945	0.001373	-0.005798	0.014954	0.13092	0.08316	0.010986	-0.048218	-0.01297	0.079803	0.1651	0.048676	-0.014496	-0.053101	-0.006256	0.11368	0.23086	-0.001984	-0.001068
53.353	0.004578	0.038757	-0.027618	-0.008698	0.019073	-0.088348	-0.028076	0.000458	0.08667	-0.038605	0.007477	0.009155	0.061798	-0.052185	0.008545	-0.013123	0.015717	0.095825	0.3508	-0.063171	0.017395	-0.016785	0.17944	0.33768	0.099945	-0.008698	0.27664	-0.003815	0.016327	0.14175	-0.005493	-0.000305
53.354	0.012512	0.042114	-0.062256	0.01297	0.026093	-0.061493	-0.029144	-0.001678	0.083008	-0.033569	-0.014496	0.00351	0.029907	0.013275	0.002594	-0.012512	0.012817	0.077209	0.19501	0.003815	0.15106	-0.018768	0.19089	0.30716	0.068359	-0.014801	0.18875	0.020599	-0.025482	0.099792	-0.001068	-0.005493
53.355	0.01358	0.048218	-0.05722	0.008087	0.003815	-0.074005	-0.028076	-0.007324	0.08255	-0.02121	-0.003052	0.00473	0.00885	0.037384	-0.032349	-0.001068	0.039825	0.066223	0.19684	-0.033417	0.15396	-0.011444	0.29572	0.33264	0.005035	-0.014038	-0.011139	0.013885	-0.016937	0.058136	-0.003967	-0.005341
53.356	0.007935	0.041046	-0.054626	0.001068	0.011597	-0.076447	-0.025177	0.000916	0.067444	-0.028229	-0.001831	0.007629	0.021515	0.061646	-0.006104	-0.011139	0.050812	0.020142	0.14297	-0.030975	0.05249	0.035706	0.30472	0.14358	-0.012817	-0.015259	-0.005035	-0.00946	-0.022736	0.045776	-0.003662	-0.010376
53.357	0.012512	0.037994	-0.077362	-0.00946	0.017242	-0.056	-0.03952	-0.003967	0.068359	-0.026703	-0.00412	0.006561	0.047455	0.12543	0.070343	-0.019684	0.015411	-0.027771	0.014038	-0.028992	-0.41046	0.12451	0.2034	0.035095	-0.001221	-0.033875	0.028992	-0.010834	-0.000916	-0.058441	0.006409	-0.010529
53.358	0.010376	0.025787	-0.094452	0.014648	0.005341	-0.017395	-0.03006	-0.00946	0.071259	-0.038147	0.017853	0.000916	0.073242	0.12695	0.12924	-0.011749	-0.043182	-0.013733	-0.38681	-0.053101	-0.32562	0.077362	-0.016785	0.001526	0.016327	-0.032349	0.010223	-0.005035	0.003204	-0.11871	-0.00351	-0.012665
53.359	0.00885	0.05661	-0.090179	-0.007019	-0.027924	0.013275	-0.027313	0.00473	0.051727	-0.029907	0.034637	0.004883	0.071869	0.027466	0.013275	-0.008392	-0.035248	-0.062714	-0.24506	-0.05661	-0.11093	0.013428	-0.15259	-0.032654	-0.001526	-0.036163	0.15579	-0.001526	-0.054169	-0.15259	-0.001831	-0.025787
53.36	0.00412	0.029602	-0.080414	0.003662	-0.020905	0.030212	-0.012207	0.000458	0.055389	-0.013428	0.016632	0.004425	0.082855	-0.014648	-0.075531	0.000458	0.017242	-0.16052	0.053864	-0.044403	-0.23926	0.02243	0.10498	-0.048676	-0.027008	-0.024414	0.36575	-0.011597	-0.093079	-0.27756	-0.000763	-0.015717
53.361	0.003815	0.045929	-0.051117	-0.004578	-0.011139	0.048065	-0.019684	0.001526	0.068665	0.004425	0.004272	0.007629	0.086365	-0.058899	-0.072937	0.001526	0.037079	-0.14358	0.027924	-0.1239	-0.21515	0.006714	0.097198	-0.059509	-0.036011	-0.031281	0.39673	-0.014496	-0.088348	-0.23224	-0.007019	-0.014038
53.362	0.006866	0.063934	-0.039825	0.001831	-0.027161	0.034332	-0.024719	0.002441	0.066071	0.00946	0.007324	0.010681	0.086823	-0.078735	-0.065613	0.005188	-0.008087	-0.19501	0.063477	-0.16327	-0.19287	0.062256	-0.044403	-0.033264	-0.032349	-0.039368	0.43839	-0.020447	-0.1207	-0.074921	-0.003357	-0.015411
53.363	0.006714	0.03479	-0.055847	-0.001678	-0.053406	0.02243	-0.030823	-0.002441	0.059052	0.007629	-0.001373	0.006866	0.08667	-0.23193	-0.057678	-0.00885	-0.082245	-0.19501	-0.22232	-0.020599	0.15976	-0.007935	-0.18402	-0.048981	0.020599	-0.029602	0.52017	-0.018463	-0.1294	-0.002594	-0.000458	-0.009918
53.364	0.008392	0.057678	-0.061188	-0.005646	0.014038	0.010223	-0.010681	-0.009155	0.054474	-0.018311	0.00351	0.022278	0.074615	-0.44205	-0.050964	-0.007782	-0.069427	-0.052795	-0.29755	0.1445	0.37399	-0.093384	-0.32669	0.041504	0.065613	-0.016174	0.30685	-0.001526	0.074005	0.033417	-0.010071	-0.011292
53.365	0.008698	0.035706	-0.02655	-0.00946	0.060272	0.001221	-0.023651	0.012665	0.046997	-0.027161	0.000916	0.040588	0.062256	-0.50384	-0.019073	-0.009766	-0.052795	0.005188	-0.084381	0.23071	0.34637	-0.10391	-0.20721	0.072174	0.10162	-0.016785	-0.006561	-0.000763	0.16922	0.11108	-0.002899	-0.003052
53.366	0.011902	0.024872	-0.024567	0.00412	0.061646	0.007477	-0.0177	-0.002441	0.037537	-0.047302	0.00473	0.041504	0.061951	-0.35873	0.001984	-0.011902	0.001221	-0.068665	0.21927	0.29297	0.30685	-0.05249	0.072174	-0.033264	0.067444	-0.021515	0.21194	-0.005188	0.1091	0.1265	0.000763	-0.010681
53.367	0.005341	0.024109	-0.075684	0.005341	0.046844	0.002289	-0.0354	0.000305	0.046082	-0.048981	-0.001831	0.04715	0.045319	-0.13275	0.011902	-0.003967	0.037079	-0.076904	0.3717	0.14267	0.21805	-0.007019	0.10223	-0.062103	0.000458	-0.008087	-0.053406	-0.010681	0.18021	0.049744	-0.000916	-0.006409
53.368	0.004578	0.013733	-0.11871	-0.007935	0.025787	0.014343	-0.028839	0.006409	0.040588	-0.057831	0.000305	0.038147	0.021973	0.083771	0.017853	-0.008087	0.028687	-0.10757	0.048065	0.069885	0.050201	0.052948	0.1059	-0.011597	0.006409	-0.013275	-0.63721	-0.013428	0.23926	-0.002136	0.000153	-0.004883
53.369	-0.003357	-0.002899	-0.1059	-0.007935	0.003357	0.009613	-0.035095	-0.003815	0.052948	-0.085297	0.005951	0.041351	0.024414	0.10635	0.010986	-0.01358	0.015564	-0.061951	-0.029449	0.051117	-0.01297	-0.003815	0.094757	-0.001984	-0.001984	-0.028229	-0.68207	-0.018005	0.089722	-0.10254	-0.001831	-0.007477
53.37	-0.003357	0.018463	-0.082245	-0.009613	-0.032043	-0.010376	-0.036469	0.010681	0.050812	-0.06485	-0.012665	0.03479	0.040741	0.016785	0.018005	0.001984	-0.000153	0.036926	-0.036163	0.028229	0.02243	-0.055084	0.021057	0.003357	0.001526	-0.047302	-0.42358	-0.0177	-0.097046	-0.26825	0.001984	0.000763
